{"title":"Can't Buy Me Love 1987 DVDrip English Klam","uid":6421079,"size":1472856496,"categoryP":"video","categoryS":"movies","magnet":"?xt=urn:btih:02386e860de8bccdce594bd20f15c53ab6a7f24d&amp;dn=Can%5C%27t+Buy+Me+Love+1987+DVDrip+English+Klam&amp;tr=udp%3A%2F%2Ftracker.openbittorrent.com%3A80&amp;tr=udp%3A%2F%2Fopen.demonii.com%3A1337&amp;tr=udp%3A%2F%2Ftracker.coppersurfer.tk%3A6969&amp;tr=udp%3A%2F%2Fexodus.desync.com%3A6969","seeders":1,"leechers":0,"uploader":"Klambake","files":5,"time":1306317755,"description":"With: Patrick Dempsey, Amanda Peterson and Courtney Gains\n\nZoals elke tiener wil Ronald Miller populair zijn. Voor hem lijkt het een onrealiseerbare droom: hij ziet er niet hip uit, draagt geen moderne kleren en is niet sportief. Het is dus niet verwonderlijk dat de meisjes hem negeren en dat hij nooit uitgenodigd wordt op fuiven. Toch is Ronald niet van plan zijn lot te aanvaarden, vooral niet nu hij laatstejaars is. Door een stom toeval komt hij in contact met Cindy Mancini. Ze is het knapste meisje van de school en aanvoerster van de cheerleaders. Cindy gaat akkoord om zich gedurende een maand als zijn vriendinnetje voor te doen in ruil voor een nieuw suÃƒÂ¨de pakje.\n\nRonald Miller is tired of being a nerd, and makes a deal with one of the most popular girls in school to help him break into the &quot;cool&quot; clic...\n\nGeneral:\n\nComplete name                    : Cant Buy Me Love\\Can't Buy Me Love.avi\nFormat                           : AVI\nFormat/Info                      : Audio Video Interleave\nFile size                        : 1.37 GiB\nDuration                         : 1h 30mn\nOverall bit rate                 : 2 172 Kbps\n\nVideo:\n\nFormat                           : MPEG-4 Visual\nFormat profile                   : Simple@L3\nFormat settings, BVOP            : No\nFormat settings, QPel            : No\nFormat settings, GMC             : No warppoints\nFormat settings, Matrix          : Default (H.263)\nCodec ID                         : XVID\nCodec ID/Hint                    : XviD\nDuration                         : 1h 30mn\nBit rate                         : 1 777 Kbps\nWidth                            : 720 pixels\nHeight                           : 526 pixels\nDisplay aspect ratio             : 4:3\nFrame rate                       : 25.000 fps\nColor space                      : YUV\nChroma subsampling               : 4:2:0\nBit depth                        : 8 bits\nScan type                        : Progressive\nBits/(Pixel*Frame)               : 0.188\nStream size                      : 1.12 GiB (82%)\nWriting library                  : XviD 1.1.2 (UTC 2006-11-01)\n\nAudio:\n\nFormat                           : AC-3\nFormat/Info                      : Audio Coding 3\nMode extension                   : CM (complete main)\nCodec ID                         : 2000\nDuration                         : 1h 30mn\nBit rate mode                    : Constant\nBit rate                         : 384 Kbps\nChannel(s)                       : 6 channels\nChannel positions                : Front: L C R, Side: L R, LFE\nSampling rate                    : 48.0 KHz\nBit depth                        : 16 bits\nStream size                      : 248 MiB (18%)\nAlignment                        : Aligned on interleaves\nInterleave, duration             : 32 ms (0.80 video frame)\nInterleave, preload duration     : 64 ms\n\n\n","torrent":{"xt":"urn:btih:02386e860de8bccdce594bd20f15c53ab6a7f24d","amp;dn":"Can%5C%27t+Buy+Me+Love+1987+DVDrip+English+Klam","amp;tr":["udp%3A%2F%2Ftracker.openbittorrent.com%3A80","udp%3A%2F%2Fopen.demonii.com%3A1337","udp%3A%2F%2Ftracker.coppersurfer.tk%3A6969","udp%3A%2F%2Fexodus.desync.com%3A6969"],"infoHash":"02386e860de8bccdce594bd20f15c53ab6a7f24d","infoHashBuffer":{"type":"Buffer","data":[2,56,110,134,13,232,188,205,206,89,75,210,15,21,197,58,182,167,242,77]},"announce":[],"urlList":[]}}